PathFileType	4	(X/Y/Z)	/Users/itak/Documents/Research/Walk-IL/dataset/trc/00039_00004.trc
DataRate	CameraRate	NumFrames	NumMarkers	Units	OrigDataRate	OrigDataStartFrame	OrigNumFrames
100.000000	100.000000	4	53	mm	100.000000	117	468
Frame#	Time	RPSI			LPSI			L3			STRN			T10			C7			CLAV			RBAK			LBAK			LSHO			LUPA			LAEL			LAOL			LWTS			LWPS			LFRA			LIFD			LHPS			LHTS			RSHO			RUPA			RAEL			RAOL			RWTS			RWPS			RFRA			RIFD			RHTS			RHPS			RBHD			LFHD			RFHD			LBHD			LHIP			RHIP			RASI			LASI			LKNE			LTHI			LANK			LTIP			LTOE			LMT1			LMT5			LHEE			RKNE			RTHI			RANK			RTIP			RTOE			RMT1			RMT5			RHEE			
		X1	Y1	Z1	X2	Y2	Z2	X3	Y3	Z3	X4	Y4	Z4	X5	Y5	Z5	X6	Y6	Z6	X7	Y7	Z7	X8	Y8	Z8	X9	Y9	Z9	X10	Y10	Z10	X11	Y11	Z11	X12	Y12	Z12	X13	Y13	Z13	X14	Y14	Z14	X15	Y15	Z15	X16	Y16	Z16	X17	Y17	Z17	X18	Y18	Z18	X19	Y19	Z19	X20	Y20	Z20	X21	Y21	Z21	X22	Y22	Z22	X23	Y23	Z23	X24	Y24	Z24	X25	Y25	Z25	X26	Y26	Z26	X27	Y27	Z27	X28	Y28	Z28	X29	Y29	Z29	X30	Y30	Z30	X31	Y31	Z31	X32	Y32	Z32	X33	Y33	Z33	X34	Y34	Z34	X35	Y35	Z35	X36	Y36	Z36	X37	Y37	Z37	X38	Y38	Z38	X39	Y39	Z39	X40	Y40	Z40	X41	Y41	Z41	X42	Y42	Z42	X43	Y43	Z43	X44	Y44	Z44	X45	Y45	Z45	X46	Y46	Z46	X47	Y47	Z47	X48	Y48	Z48	X49	Y49	Z49	X50	Y50	Z50	X51	Y51	Z51	X52	Y52	Z52	X53	Y53	Z53	

118	1.17	-1189.487182617188	1080.90283203125	88.96920776367188	-1196.161987304688	1070.24853515625	-75.35198974609375	-1196.421997070312	1127.563598632812	-4.358370304107666	-976.1174926757812	1323.149291992188	-0.9722450375556946	-1224.623291015625	1268.714599609375	-13.17525100708008	-1180.236083984375	1536.898193359375	-29.83947372436523	-1018.839416503906	1449.239501953125	-10.43178176879883	-1232.117919921875	1399.861694335938	49.92404937744141	-1189.975219726562	1492.112915039062	-128.1096496582031	-1082.8798828125	1501.506713867188	-195.3556671142578	-1103.515747070312	1370.697998046875	-268.4114074707031	-1092.265014648438	1151.331298828125	-284.0504150390625	-1151.692138671875	1140.896240234375	-196.6829528808594	-1007.352478027344	900.6810913085938	-214.8181915283203	-1080.791015625	885.3418579101562	-261.713623046875	-1078.399536132812	1036.516479492188	-285.056396484375	-984.4521484375	716.9837646484375	-185.9179077148438	-1047.601440429688	795.314208984375	-255.399169921875	-985.3143310546875	806.7044067382812	-222.7496032714844	-1117.723266601562	1528.423095703125	151.7173309326172	-1134.66064453125	1458.717041015625	222.9915161132812	-1163.794067382812	1189.112182617188	247.6240539550781	-1154.095581054688	1160.786376953125	151.5834350585938	-1032.53955078125	928.771728515625	232.6269378662109	-1102.79150390625	916.2274169921875	292.0327453613281	-1152.028076171875	1113.7724609375	264.921142578125	-1018.976440429688	742.6640625	225.4228363037109	-1001.941162109375	819.730712890625	253.4655303955078	-1062.0380859375	816.6563110351562	298.2950744628906	-1130.259643554688	1715.904052734375	-102.9700622558594	-976.4131469726562	1752.786376953125	47.30086898803711	-959.991455078125	1749.952514648438	-49.44684982299805	-1147.709716796875	1718.212890625	40.63439559936523	-1105.083374023438	961.8294067382812	-183.2344207763672	-1080.504028320312	961.3409423828125	189.5310363769531	-979.921630859375	991.3445434570312	113.4357986450195	-987.8384399414062	1005.987243652344	-120.656364440918	-1079.626586914062	516.640625	-123.989501953125	-1095.65673828125	652.8085327148438	-164.5019378662109	-1190.389404296875	42.27775955200195	-117.3077621459961	-1165.523803710938	287.5931091308594	-141.4889526367188	-976.2314453125	41.26168060302734	-36.88244247436523	-1035.914428710938	50.71052169799805	-24.76861381530762	-1065.319702148438	41.8127326965332	-127.0578536987305	-1263.822021484375	50.60636520385742	-69.16230010986328	-1100.657836914062	524.3276977539062	154.2685852050781	-1066.865844726562	793.6608276367188	188.8025970458984	-1228.064697265625	47.85966491699219	143.8830718994141	-1132.77490234375	405.9177856445312	157.2960510253906	-994.0239868164062	46.08668518066406	109.4248580932617	-1056.554931640625	50.54790878295898	77.29296112060547	-1079.092163085938	45.2408332824707	171.5872650146484	-1280.803344726562	47.78996658325195	97.30027770996094	
119	1.18	-1188.383666992188	1080.900634765625	88.04935455322266	-1195.4521484375	1070.213989257812	-76.29074859619141	-1195.49853515625	1127.570068359375	-5.252543449401855	-974.9556884765625	1322.9501953125	-2.328214645385742	-1223.564331054688	1268.790161132812	-13.97584247589111	-1178.868896484375	1536.902709960938	-30.65465354919434	-1017.615966796875	1449.075439453125	-11.67588043212891	-1230.703857421875	1399.929931640625	49.19858169555664	-1188.901611328125	1492.171508789062	-128.9389495849609	-1081.919677734375	1501.476196289062	-196.3943939208984	-1102.804077148438	1370.715454101562	-269.4622497558594	-1091.688598632812	1151.339721679688	-285.2373352050781	-1150.968017578125	1140.872192382812	-197.782958984375	-1006.501831054688	900.7267456054688	-216.2307586669922	-1080.081176757812	885.3706665039062	-262.9933776855469	-1077.782348632812	1036.548828125	-286.2977600097656	-983.350341796875	717.0375366210938	-187.4342651367188	-1046.781127929688	795.3583374023438	-256.7365417480469	-984.4027099609375	806.7366333007812	-224.2184753417969	-1115.922973632812	1528.269409179688	150.7212524414062	-1132.843383789062	1458.596069335938	222.0223236083984	-1162.314086914062	1189.079223632812	246.731201171875	-1152.78857421875	1160.719360351562	150.6673431396484	-1031.314697265625	928.644287109375	231.5139465332031	-1101.472045898438	916.1165161132812	291.0093383789062	-1150.595458984375	1113.722412109375	264.0001525878906	-1017.972106933594	742.474853515625	224.1611938476562	-1000.740295410156	819.5374145507812	252.2361297607422	-1060.883422851562	816.5451049804688	297.1246032714844	-1129.286376953125	1715.639892578125	-103.8736419677734	-975.065185546875	1752.878295898438	46.00247192382812	-958.9095458984375	1750.039184570312	-50.78795623779297	-1146.317016601562	1717.959350585938	39.76720809936523	-1104.5244140625	961.7185668945312	-184.4667510986328	-1079.235717773438	961.34130859375	188.4400024414062	-978.8223266601562	991.18115234375	112.2071914672852	-987.4177856445312	1005.847473144531	-122.0320053100586	-1078.994384765625	516.6005249023438	-124.6974716186523	-1094.873291015625	652.6502685546875	-165.3443145751953	-1190.376098632812	42.15402603149414	-117.4224090576172	-1164.920043945312	287.384521484375	-141.9181060791016	-976.3603515625	41.28303146362305	-36.74835968017578	-1035.949584960938	50.7001953125	-24.72843933105469	-1065.325805664062	41.82599639892578	-127.0473861694336	-1263.874755859375	50.54765701293945	-69.2867431640625	-1099.414306640625	524.2744750976562	153.6542510986328	-1065.739013671875	793.7255859375	187.7899627685547	-1228.081298828125	47.86965942382812	143.8792724609375	-1131.66552734375	405.7517700195312	156.8761749267578	-994.0684814453125	46.1468505859375	109.4196090698242	-1056.60205078125	50.57247543334961	77.28742980957031	-1079.096313476562	45.28040313720703	171.5948638916016	-1280.7958984375	47.74567031860352	97.29463195800781	
120	1.19	-1187.240234375	1080.886108398438	87.12969970703125	-1194.743041992188	1070.161743164062	-77.22476196289062	-1194.558227539062	1127.574340820312	-6.141430854797363	-973.77099609375	1322.749267578125	-3.717624425888062	-1222.470336914062	1268.87255859375	-14.77148246765137	-1177.45556640625	1536.913452148438	-31.4821605682373	-1016.3466796875	1448.90576171875	-12.9387903213501	-1229.245727539062	1400.0068359375	48.4700813293457	-1187.791137695312	1492.238525390625	-129.7721557617188	-1080.931762695312	1501.444458007812	-197.4501037597656	-1102.088134765625	1370.739990234375	-270.5330810546875	-1091.125366210938	1151.359130859375	-286.4555358886719	-1150.2392578125	1140.85693359375	-198.9004669189453	-1005.63818359375	900.7877197265625	-217.6910552978516	-1079.357421875	885.4044799804688	-264.2996215820312	-1077.162841796875	1036.591186523438	-287.5702819824219	-982.2490234375	717.1094360351562	-189.0069732666016	-1045.953369140625	795.4134521484375	-258.1169128417969	-983.475830078125	806.7943115234375	-225.7305755615234	-1114.038818359375	1528.108764648438	149.6969299316406	-1130.95654296875	1458.477416992188	221.0312042236328	-1160.79541015625	1189.060302734375	245.8369903564453	-1151.438720703125	1160.666015625	149.7627105712891	-1030.032836914062	928.5302734375	230.4044952392578	-1100.1220703125	916.0203857421875	289.9788513183594	-1149.1240234375	1113.682006835938	263.083984375	-1016.911804199219	742.3060302734375	222.8868865966797	-999.4938354492188	819.3736572265625	250.9900207519531	-1059.6865234375	816.4376220703125	295.9449462890625	-1128.2802734375	1715.366088867188	-104.7900619506836	-973.6828002929688	1752.96923828125	44.67567825317383	-957.7996215820312	1750.138671875	-52.16648864746094	-1144.857421875	1717.696533203125	38.91035842895508	-1103.965698242188	961.5945434570312	-185.7111968994141	-1077.9306640625	961.3423461914062	187.3297271728516	-977.6735229492188	991.0401000976562	110.9423904418945	-986.9105834960938	1005.713012695312	-123.4321441650391	-1078.3359375	516.5536499023438	-125.4250869750977	-1094.130126953125	652.5048217773438	-166.2236328125	-1190.365356445312	42.02566146850586	-117.538330078125	-1164.30908203125	287.179443359375	-142.3469085693359	-976.5089721679688	41.30747222900391	-36.59513092041016	-1036.00537109375	50.68693542480469	-24.67816734313965	-1065.332763671875	41.84245681762695	-127.0337600708008	-1263.929809570312	50.48321914672852	-69.43768310546875	-1097.874633789062	524.2129516601562	153.0453033447266	-1064.469116210938	793.7927856445312	186.6756896972656	-1228.093017578125	47.87826538085938	143.8780517578125	-1130.3056640625	405.5215148925781	156.4499664306641	-994.1106567382812	46.21071624755859	109.4138259887695	-1056.654296875	50.59820556640625	77.27344512939453	-1079.101806640625	45.31660461425781	171.5992584228516	-1280.783447265625	47.69395446777344	97.29479217529297	
121	1.2	-1186.052490234375	1080.8544921875	86.2178955078125	-1194.018432617188	1070.08740234375	-78.14009094238281	-1193.5947265625	1127.573608398438	-7.018082141876221	-972.559326171875	1322.54248046875	-5.13616943359375	-1221.338623046875	1268.957275390625	-15.56125545501709	-1175.995849609375	1536.931518554688	-32.32531356811523	-1015.037841796875	1448.725341796875	-14.21701431274414	-1227.748901367188	1400.088256835938	47.7331428527832	-1186.632568359375	1492.309692382812	-130.6070861816406	-1079.913818359375	1501.408081054688	-198.5239562988281	-1101.365112304688	1370.7685546875	-271.6241455078125	-1090.574096679688	1151.386962890625	-287.7066955566406	-1149.50537109375	1140.848266601562	-200.0354614257812	-1004.756103515625	900.8652954101562	-219.1900482177734	-1078.608764648438	885.4404296875	-265.627197265625	-1076.545532226562	1036.644165039062	-288.8746643066406	-981.1414184570312	717.1970825195312	-190.6226501464844	-1045.111206054688	795.4760131835938	-259.5368957519531	-982.5317993164062	806.88037109375	-227.2794647216797	-1112.07958984375	1527.943969726562	148.6453399658203	-1129.00439453125	1458.361206054688	220.0180511474609	-1159.244750976562	1189.054321289062	244.9398040771484	-1150.057739257812	1160.624877929688	148.8653564453125	-1028.701782226562	928.4285888671875	229.2991943359375	-1098.742919921875	915.938720703125	288.9460144042969	-1147.6201171875	1113.649780273438	262.1719055175781	-1015.782653808594	742.1650390625	221.6221771240234	-998.2058715820312	819.2332153320312	249.7417602539062	-1058.429931640625	816.3310546875	294.7753295898438	-1127.228271484375	1715.075927734375	-105.7160491943359	-972.2634887695312	1753.056762695312	43.32498931884766	-956.6597290039062	1750.246337890625	-53.57686996459961	-1143.333618164062	1717.419921875	38.06338882446289	-1103.403564453125	961.452880859375	-186.9521789550781	-1076.584838867188	961.3441772460938	186.2049255371094	-976.4773559570312	990.9186401367188	109.6463317871094	-986.2941284179688	1005.584533691406	-124.8507385253906	-1077.648803710938	516.4998168945312	-126.1680145263672	-1093.431030273438	652.370361328125	-167.1402282714844	-1190.357788085938	41.89678573608398	-117.6526031494141	-1163.697143554688	286.9794311523438	-142.7721557617188	-976.6747436523438	41.33456420898438	-36.42346954345703	-1036.085693359375	50.66896057128906	-24.61742401123047	-1065.3408203125	41.86261367797852	-127.0163955688477	-1263.98974609375	50.41562271118164	-69.61222839355469	-1095.989990234375	524.129638671875	152.4335784912109	-1063.046142578125	793.8660888671875	185.44970703125	-1228.097412109375	47.88660430908203	143.8782806396484	-1128.66162109375	405.2229919433594	156.0126495361328	-994.1475219726562	46.27534484863281	109.4072952270508	-1056.708251953125	50.6234016418457	77.25173950195312	-1079.109741210938	45.34018325805664	171.5957183837891	-1280.764404296875	47.63827896118164	97.300537109375	
